<?xml version="1.0" encoding="utf-8"?>
<!-- Generator: Adobe Illustrator 25.0.0, SVG Export Plug-In . SVG Version: 6.00 Build 0)  -->
<svg version="1.1" id="Capa_1" xmlns="http://www.w3.org/2000/svg" xmlns:xlink="http://www.w3.org/1999/xlink" x="0px" y="0px"
	 viewBox="0 0 400 300" style="enable-background:new 0 0 400 300;" xml:space="preserve">
<style type="text/css">
	.st0{fill:#D30D0D;}
	.st1{fill:#1BEF39;}
	.st2{fill:#F2EB0C;}
</style>
<g>
	<g>
		<path d="M71.59,43.68c19.97,4.77,39.94,9.53,59.91,14.3c19.75,4.71,39.47,9.62,59.33,13.85c9.91,2.11,19.86,4.03,29.86,5.59
			c2.39,0.37,4.78,0.75,7.18,1.06c1.68,0.21,3.53,0.25,5.04-0.65c3.41-2.04,2.42-6.91,0.99-9.87c-3.87-8.02-13.33-9.97-21.38-10.38
			c-8.07-0.42-16.4-0.08-24.16,2.35c-7.81,2.45-14.46,7.19-18.92,14.11c-4.47,6.94-6.97,15.55-7.37,23.77
			c-0.4,8.22,2.18,16.23,8.59,21.63c5.71,4.8,13.08,7.28,20.36,8.4c18.08,2.79,37.15-0.68,53.54-8.65c6.85-3.33,13.39-7.81,18-13.95
			c4.3-5.74,7.25-14.2,3.97-21.09c-1.45-3.04-4.23-5.06-7.59-5.29c-2.88-0.2-6.02,1.05-7.36,3.74c-1.64,3.3-0.04,7.12,2.66,9.31
			c3.43,2.78,8.01,2.63,12.15,2c17.84-2.71,35.39-9.09,51.2-17.7c3.9-2.12,7.7-4.41,11.41-6.84c-0.73-0.56-1.47-1.13-2.2-1.69
			c-3.18,20.49-0.83,41.71,6.8,60.99c1.87,4.73,4.04,9.35,6.52,13.8c2.19,3.92,5.73,8.09,6.06,12.74c0.16,2.32-1.01,4-3.23,4.72
			c-2.59,0.84-5.41,1.15-8.09,1.64c-5.87,1.07-11.75,2.05-17.64,2.94c-23.45,3.55-47.1,5.74-70.77,7.26
			c-23.76,1.52-47.56,2.36-71.35,3.18c-5.88,0.2-11.75,0.4-17.63,0.61c-5.61,0.2-11.3,0.19-16.89,0.79
			c-4.82,0.52-9.79,1.68-13.62,4.82c-3.21,2.63-5.49,6.72-5.6,10.91c-0.05,1.99,0.47,3.92,1.46,5.64c0.84,1.46,3.22,0.49,2.74-1.16
			c-4.96-17.21-17.89-32.69-34.66-39.42c-8.51-3.42-19.01-4.08-26.15,2.6c-3.27,3.05-5.35,7.14-6.87,11.3
			c-1.67,4.58-2.81,9.42-3.5,14.24c-1.36,9.56-0.72,19.8,4.67,28.11c4.81,7.41,12.49,12.18,20.59,15.31
			c9.38,3.63,19.51,5.31,29.45,6.52c11.48,1.4,23.07,1.79,34.63,1.53c11.55-0.26,23.07-1.15,34.55-2.31
			c5.7-0.58,11.4-1.22,17.09-1.89c2.8-0.33,5.64-0.55,8.42-1.01c1.81-0.3,3.71-1.02,5.08-2.26c1.29-1.16,1.89-2.83,1.29-4.5
			c-0.84,0.49-1.67,0.97-2.51,1.46c11.48,14.56,29.28,23.44,47.66,24.98c9.25,0.77,19.05-0.27,27.69-3.77
			c4.49-1.82,8.77-4.62,10.99-9.07c2.27-4.55,2.38-9.82,1.38-14.73c-3.83-18.8-21.74-30.75-38.68-36.76
			c-21.44-7.6-45.3-8.64-67.45-3.77c-5.35,1.18-10.78,2.61-15.86,4.68c-4.29,1.75-8.52,4.44-9.86,9.15
			c-1.46,5.12,0.35,11.2,1.91,16.1c1.62,5.08,3.87,9.98,6.7,14.49c1.41,2.25,2.96,4.39,4.63,6.45c0.59,0.73,1.95,0.5,2.36-0.3
			c12.17-23.92,5.75-52.95-9.1-74.12c-15.78-22.49-39.72-38.24-63.34-51.49c-14.68-8.24-29.95-15.41-45.64-21.51
			c-0.79-0.31-1.61,0.34-1.85,1.05c-9.65,28.29-2.12,60.19,14.63,84.25c17.06,24.5,42.56,41.77,69.44,53.96
			c15.54,7.04,31.69,12.6,47.95,17.69c8.17,2.56,16.38,5.01,24.58,7.49c8.21,2.49,16.38,5.17,24.69,7.34
			c8.21,2.14,16.67,3.74,25.18,3.66c4.23-0.04,8.45-0.53,12.58-1.46c4.11-0.93,8.13-2.23,12.21-3.29
			c8.51-2.22,17.13-2.45,25.86-1.96c4.03,0.23,8.37,0.97,12.3-0.29c3.4-1.1,5.97-3.6,8.11-6.36c4.7-6.06,9.06-12.68,12.64-19.46
			c3.6-6.8,6.22-14.15,6.61-21.88c0.77-15.26-6.75-29.29-13.04-42.68c-3.28-6.98-6.09-14.03-8.32-21.41
			c-2.16-7.15-4.15-14.43-7.52-21.13c-6.25-12.43-17.95-20.69-31.59-23.13c-13.69-2.44-27.55,1.22-38.97,8.95
			c-12.25,8.3-21.11,20.46-26.77,34.02c-3.05,7.32-5.19,14.99-6.63,22.78c-0.71,3.83-0.91,7.84-1.98,11.58
			c-1.08,3.79-3.81,6.12-7.42,7.47c-7.56,2.83-16.43,3.01-24.29,1.51c-6.5-1.24-14.41-3.72-17.9-9.87
			c-2.08-3.67-1.57-7.95-0.52-11.86c0.97-3.62,2.25-7.17,3.64-10.65c2.7-6.75,6.09-13.23,9.93-19.4
			c7.78-12.48,17.5-23.64,28.08-33.81c10.94-10.51,22.8-20.38,35.33-28.95c6.79-4.64,13.96-8.61,21.71-11.41
			c7.94-2.87,16.21-4.81,24.49-6.4c8.57-1.65,17.22-2.79,25.92-3.45c1.91-0.14,1.93-3.15,0-3c-8.77,0.66-17.51,1.81-26.15,3.45
			c-8.38,1.59-16.76,3.54-24.8,6.42c-15.05,5.4-27.82,15.05-40.14,25.01c-22.35,18.08-43.38,39.47-55.27,66.03
			c-1.47,3.29-2.81,6.65-3.98,10.06c-1.29,3.77-2.6,7.69-2.69,11.71c-0.17,7.12,4.49,12.42,10.58,15.46
			c6.9,3.45,15.06,4.74,22.73,4.5c4.01-0.13,8.07-0.67,11.94-1.75c3.12-0.87,6.29-2.23,8.58-4.6c2.66-2.77,3.46-6.46,3.98-10.14
			c0.56-3.92,1.2-7.82,2.06-11.68c1.73-7.76,4.19-15.39,7.67-22.55c6.35-13.07,16.18-24.5,29.15-31.33
			c12.16-6.4,26.42-7.81,39.35-2.9c6.17,2.34,11.79,6.16,16.07,11.2c4.8,5.65,7.57,12.69,9.81,19.67
			c2.32,7.22,4.21,14.55,7.11,21.57c2.87,6.95,6.29,13.64,9.38,20.49c3.1,6.86,5.9,13.98,7.04,21.46c1.15,7.51,0.19,15-2.51,22.08
			c-2.82,7.4-7.22,14.11-11.69,20.61c-2.07,3.01-4.05,6.28-6.83,8.71c-3.24,2.84-7.16,2.88-11.25,2.6
			c-8.41-0.56-16.87-0.91-25.21,0.6c-8.4,1.52-16.34,4.93-24.9,5.66c-17.27,1.46-34.09-4.77-50.34-9.71
			c-16.2-4.93-32.48-9.66-48.45-15.29c-28.91-10.2-57.41-23.78-79.57-45.43c-21.14-20.65-35.39-49.14-33.72-79.2
			c0.39-7.07,1.75-14.04,4.03-20.74c-0.62,0.35-1.23,0.7-1.85,1.05c26.44,10.28,52.14,23.62,75.11,40.32
			c20.8,15.13,39.57,34.99,45.39,60.78c3.13,13.88,2.3,28.79-4.22,41.6c0.79-0.1,1.57-0.2,2.36-0.3
			c-6.37-7.9-10.75-17.45-12.49-27.45c-0.45-2.59-0.68-5.47,0.49-7.91c0.94-1.96,2.66-3.37,4.5-4.44c4.23-2.44,9.29-3.7,13.98-4.93
			c20.84-5.45,43.11-5.28,63.85,0.54c16.35,4.59,34.08,13.72,41.19,30.11c1.81,4.17,2.89,8.79,2.53,13.35
			c-0.39,4.93-2.9,9.02-7.11,11.6c-3.85,2.35-8.37,3.61-12.75,4.5c-4.22,0.86-8.52,1.25-12.82,1.21
			c-17.14-0.15-34.25-7.16-46.23-19.47c-1.5-1.54-2.91-3.17-4.24-4.85c-0.93-1.17-3,0.1-2.51,1.46c1.19,3.3-8.37,3.56-9.91,3.74
			c-5.31,0.63-10.62,1.24-15.94,1.8c-10.64,1.12-21.3,2.03-31.98,2.45c-20.4,0.8-41.54,0.12-61.35-5.28
			c-7.87-2.14-15.81-5.35-21.84-11c-6.63-6.21-9.51-14.75-9.5-23.71c0-4.68,0.68-9.32,1.75-13.87c0.99-4.21,2.2-8.48,4.25-12.31
			c2.01-3.76,4.94-7.03,8.98-8.62c3.97-1.56,8.39-1.49,12.5-0.59c8.36,1.83,16.01,6.77,22.17,12.58
			c6.12,5.77,11.06,12.84,14.24,20.64c0.79,1.94,1.46,3.93,2.04,5.94c0.91-0.39,1.83-0.77,2.74-1.16
			c-2.15-3.72-0.69-8.31,2.02-11.34c3.3-3.69,8.39-5,13.14-5.51c5.59-0.6,11.27-0.59,16.89-0.79c5.78-0.21,11.56-0.4,17.34-0.6
			c23.6-0.81,47.21-1.64,70.78-3.13c23.36-1.48,46.7-3.63,69.86-7.04c5.8-0.85,11.6-1.79,17.37-2.82c2.92-0.52,5.83-1.05,8.74-1.62
			c2.12-0.42,4.3-1.04,5.81-2.69c2.98-3.27,1.73-7.93,0.05-11.5c-1.02-2.18-2.38-4.17-3.59-6.24c-1.31-2.25-2.55-4.55-3.7-6.88
			c-9.12-18.46-13.06-39.44-11.35-59.95c0.21-2.55,0.52-5.09,0.91-7.61c0.18-1.18-1-2.48-2.2-1.69
			c-13.88,9.09-29.1,16.04-45.09,20.51c-4.02,1.12-8.09,2.09-12.19,2.9c-3.82,0.75-8.23,1.92-12.04,0.56
			c-2.71-0.97-5.9-4.73-3.43-7.51c1.67-1.87,5.02-1.76,6.95-0.41c2.81,1.97,3.41,5.88,3.16,9.06c-0.27,3.45-1.61,6.81-3.42,9.72
			c-3.69,5.93-9.54,10.27-15.6,13.57c-14.52,7.9-31.87,11.59-48.34,10.4c-13.65-0.99-30.05-6.26-32.21-21.9
			c-1.05-7.6,0.82-15.94,3.93-22.87c3.15-7.04,8.21-12.77,15.21-16.13c6.63-3.18,14.16-4.12,21.43-4.22
			c7.39-0.1,16.63-0.23,22.45,5.06c1.29,1.17,2.4,2.56,3.11,4.16c0.59,1.33,1.41,3.82,0.44,5.15c-0.89,1.23-3.1,0.77-4.35,0.6
			c-2.29-0.31-4.58-0.67-6.87-1.03c-9.15-1.45-18.25-3.19-27.31-5.1c-17.84-3.76-35.55-8.13-53.29-12.36
			c-18.15-4.33-36.31-8.67-54.46-13c-4.4-1.05-8.79-2.1-13.19-3.15C70.51,40.34,69.71,43.23,71.59,43.68L71.59,43.68z"/>
	</g>
</g>
<g>
	<rect x="22" y="59" class="st0" width="136" height="112"/>
</g>
<circle class="st1" cx="298" cy="171" r="56"/>
<polygon class="st2" points="155.5,133.41 172.87,168.6 211.7,174.24 183.6,201.63 190.23,240.3 155.5,222.04 120.77,240.3 
	127.4,201.63 99.3,174.24 138.13,168.6 "/>
</svg>
